<svg xmlns="http://www.w3.org/2000/svg" xmlns:xlink="http://www.w3.org/1999/xlink" viewBox="0 0 301.18 231.33"><defs><style>.cls-1{fill:#2b4e9d;}.cls-2{fill:url(#Adsız_degrade_191);}</style><linearGradient id="Adsız_degrade_191" x1="17.13" y1="248.46" x2="236.98" y2="28.61" gradientUnits="userSpaceOnUse"><stop offset="0.47" stop-color="#0d5ba8"/><stop offset="0.65" stop-color="#95c11f"/></linearGradient></defs><g id="katman_2" data-name="katman 2"><g id="katman_1-2" data-name="katman 1"><path class="cls-1" d="M269.76,63.88c-1.22-6.28-1.29-12.09-2.81-18-1.56-6.12-6.08-10.51-12.23-11.41l-17-2.49,13.07-1.73C259,29.12,264,26.32,266.92,18.6L269.74,0l2.58,17.88c.91,6.26,5.82,10.59,12.07,11.54L301.18,32l-16.91,2.51c-6.42.95-10.64,5.68-12.23,12Z"/><path class="cls-2" d="M136.63,171.26,126,182.66l-22.75-27,9.17-19.92,24.3,28.73C139.12,166.52,138.52,169.24,136.63,171.26Zm18.65-19.62L122.3,113l-8.68,19.77L139.21,163a5.8,5.8,0,0,0,2.07,1.7,3.78,3.78,0,0,0,2.62-1ZM175.78,176,157,153.74l-11.88,12.73c-.76,2.1,0,3.69,1.31,5.21l20.07,23.26ZM144,173.1a3.8,3.8,0,0,0-2.26-1.71,4.2,4.2,0,0,0-2.66,1.22l-11.29,12.22,27.53,33.1,9.51-20.25Zm23,27.14-8.78,18.22L176,210.59Zm30.39.89-19.56-22.85-9.34,19.18,10,11.92Zm30.3-67.58L205.9,124c-.86-.38-2.84.7-3.67,1.29L182,170.57l19.42,22.9Zm1.23-2.84,17.22-39.06-22.24-9.72-3.27,1.74-14.27,32.41c-.83,1.25-1.23,4.33.48,5.08Zm28.68-81.47a17.86,17.86,0,0,0-10.94-5.41l-7.82-1L224,76.22l1.21,3.28L247.31,89,261,58C260.42,54.72,259.66,51.54,257.59,49.24Zm-34,25.05,14.15-31.95L210,54.51c-5.11,2.6-9.24,6.36-11.48,11.59l21.84,9.52Zm-5.49,8L217,79.1l-22.08-9.6-17.52,39,21.8,9.56c1,.44,3-.49,3.8-1.5Zm-19.71,38.45-22.16-9.61-15.45,34.6,19.06,22.47,19.53-44ZM137.57,86.83c-.71-.45-2.88-.74-3.53-.06l-12.34,13,33.2,39,9.23-20.69Zm36.69,8.44L151.49,68.83,139.31,81.41l.17,3.4,25.92,30.44ZM131.07,79.45,111.76,56.77l-9.9,19.58,18,21.23,11.36-11.87A4.23,4.23,0,0,0,131.07,79.45Zm18.7-12.79L122.41,34.72l-9.32,19.1,20,23.67c.95,1.12,3.16,3.14,4.72,1.53Zm-30.48-32.3L81,51.7,99.88,73.94ZM95,80.82,76.43,59l-27,60.93,21,9.09c1.2.53,3.25-.44,4.11-1.69Zm5.49,61.1,16-36L97.23,83.31,91.05,97.05,77.17,128.76a7.23,7.23,0,0,0,1.2,3.67Zm-29.46-6.76L70,131.88l-21.71-9.34L30.75,162.16l21.67,9.33a7.37,7.37,0,0,0,3.25-1.6Zm28.15,9.49L77,134.87l-3.48,1.91L59.09,169.55a5.17,5.17,0,0,0-.32,3.86,5.3,5.3,0,0,0,2.58,1.94l20.5,8.7Zm-18.6,42-22.2-9.49a7.58,7.58,0,0,0-3.52,1.5L39.41,213.8l23-10C70.56,200.29,77.21,194.82,80.61,186.66Zm-28.33-9.13A7.8,7.8,0,0,0,51,174l-21.4-9.17L3.17,224.19,0,231.33l35.32-15.54Z"/></g></g></svg>